# xmcd
# Track frame offsets:
# 150
# 13472
# 27125
# 42600
# 54997
# 65545
# 76620
# 85702
# 100800
# 114745
# 126250
# 141295
# 152667
# 166800
# 176315
# 191905
# 206762
# 217245
# 228710
# 242350
# 256120
# 267795
#
# Disc length: 3758 seconds
# Revision: 0
# Processed by: cddbd v1.4PL0 Copyright (c) Steve Scherf et al.
# Submitted via: VisiTrax 2.9.5.181 - For more info visit www.synapsa.com
#
DISCID=320eac16
DTITLE=Various Artist - Country Collection Disc 6
DYEAR=1999
DGENRE=Country
TTITLE0=Eddy Arnold - Release Me
TTITLE1=Glen Cambell - Honey Come Back
TTITLE2=Lena Martell - Love Letters
TTITLE3=Lena Martell - Ramblin' Rose
TTITLE4=Marty Robbins - Bouquet of Roses
TTITLE5=Patsy Cline - South of the Border (Down Mexico Way)
TTITLE6=Loretta Lynn - Send me the pillow that you dream on
TTITLE7=Connie Fancis - He Thinks I Still care
TTITLE8=Roy Orbison - The Great Pretender
TTITLE9=Frank Ifield - Nobody's Darlin' But Mine
TTITLE10=Tom Jones - My Elusive Dreams
TTITLE11=Frank Ifield - Funny How Time Slips Away
TTITLE12=Marty Robbins - Love me tender
TTITLE13=Glen Campbell and Bobbie Gentry - Let It Be Me
TTITLE14=Crystal Gayle - When I Dream
TTITLE15=Eddy Arnold - Can't take my eyes off you
TTITLE16=Peters and Lee - Rainining in my heart
TTITLE17=Roger Whitaker - Blue Eyes Crying In The Rain
TTITLE18=Kenny Rogers - I Will Always Love You
TTITLE19=Don Williams - Stay Young
TTITLE20=Crystal Gayle - Never Ending Song of Love
TTITLE21=Waylon Jennings - Sweet Caroline
EXTD=Data by Phil Taylor - Island of Jersey
EXTT0=
EXTT1=
EXTT2=
EXTT3=
EXTT4=
EXTT5=
EXTT6=
EXTT7=
EXTT8=
EXTT9=
EXTT10=
EXTT11=
EXTT12=
EXTT13=
EXTT14=
EXTT15=
EXTT16=
EXTT17=
EXTT18=
EXTT19=
EXTT20=
EXTT21=
PLAYORDER=
